<svg width="32" height="32" viewBox="0 0 32 32" fill="none" xmlns="http://www.w3.org/2000/svg">
<path d="M13.6407 29L0 14.9797L3.35495 13.1461L0.69767 10.4149L4.01575 8.60155L1.32895 5.83997L5.08943 3.78483L7.77624 6.54642L11.0943 4.73306L13.7516 7.46429L17.1434 5.61064L30.7841 19.631L27.0236 21.6861L21.6795 16.1933L12.0202 21.4722L17.3643 26.965L13.6407 29ZM9.03817 18.4071L18.6975 13.1283L13.6782 7.96925L10.3601 9.78261L7.70281 7.05137L4.67968 8.70354L7.33695 11.4348L4.01887 13.2481L9.03817 18.4071Z" fill="white"/>
<path d="M32 17.8462L18.3593 3.82581L17.1434 5.61064L30.7841 19.631L32 17.8462Z" fill="url(#paint0_linear_6_1728)"/>
<path d="M18.3593 3.82581L14.9675 5.67946L13.7516 7.46429L17.1434 5.61064L18.3593 3.82581Z" fill="url(#paint1_linear_6_1728)"/>
<path d="M14.9675 5.67946L12.3102 2.94822L11.0943 4.73306L13.7516 7.46429L14.9675 5.67946Z" fill="url(#paint2_linear_6_1728)"/>
<path d="M12.3102 2.94822L8.99215 4.76158L7.77624 6.54642L11.0943 4.73306L12.3102 2.94822Z" fill="url(#paint3_linear_6_1728)"/>
<path d="M14.8941 6.18442L19.9134 11.3434L18.6975 13.1283L13.6782 7.96925L14.8941 6.18442Z" fill="url(#paint4_linear_6_1728)"/>
<path d="M28.2395 19.9013L32 17.8462L30.7841 19.631L27.0236 21.6861L28.2395 19.9013Z" fill="url(#paint5_linear_6_1728)"/>
<path d="M11.576 7.99778L14.8941 6.18442L13.6782 7.96925L10.3601 9.78261L11.576 7.99778Z" fill="url(#paint6_linear_6_1728)"/>
<path d="M8.99215 4.76158L6.30534 2L5.08943 3.78483L7.77624 6.54642L8.99215 4.76158Z" fill="url(#paint7_linear_6_1728)"/>
<path d="M22.8954 14.4085L28.2395 19.9013L27.0236 21.6861L21.6795 16.1933L22.8954 14.4085Z" fill="url(#paint8_linear_6_1728)"/>
<path d="M8.91872 5.26653L11.576 7.99778L10.3601 9.78261L7.70281 7.05137L8.91872 5.26653Z" fill="url(#paint9_linear_6_1728)"/>
<path d="M6.30534 2L2.54485 4.05514L1.32895 5.83997L5.08943 3.78483L6.30534 2Z" fill="url(#paint10_linear_6_1728)"/>
<path d="M5.89558 6.9187L8.91872 5.26653L7.70281 7.05137L4.67968 8.70354L5.89558 6.9187Z" fill="url(#paint11_linear_6_1728)"/>
<path d="M2.54485 4.05514L5.23165 6.81672L4.01575 8.60155L1.32895 5.83997L2.54485 4.05514Z" fill="url(#paint12_linear_6_1728)"/>
<path d="M8.55286 9.64994L5.89558 6.9187L4.67968 8.70354L7.33695 11.4348L8.55286 9.64994Z" fill="url(#paint13_linear_6_1728)"/>
<path d="M19.9134 11.3434L10.2541 16.6223L9.03817 18.4071L18.6975 13.1283L19.9134 11.3434Z" fill="url(#paint14_linear_6_1728)"/>
<path d="M13.2361 19.6874L22.8954 14.4085L21.6795 16.1933L12.0202 21.4722L13.2361 19.6874Z" fill="url(#paint15_linear_6_1728)"/>
<path d="M5.23165 6.81672L1.91358 8.63008L0.69767 10.4149L4.01575 8.60155L5.23165 6.81672Z" fill="url(#paint16_linear_6_1728)"/>
<path d="M5.23478 11.4633L8.55286 9.64994L7.33695 11.4348L4.01887 13.2481L5.23478 11.4633Z" fill="url(#paint17_linear_6_1728)"/>
<path d="M1.91358 8.63008L4.57085 11.3613L3.35495 13.1461L0.69767 10.4149L1.91358 8.63008Z" fill="url(#paint18_linear_6_1728)"/>
<path d="M10.2541 16.6223L5.23478 11.4633L4.01887 13.2481L9.03817 18.4071L10.2541 16.6223Z" fill="url(#paint19_linear_6_1728)"/>
<path d="M4.57085 11.3613L1.21591 13.1948L0 14.9797L3.35495 13.1461L4.57085 11.3613Z" fill="url(#paint20_linear_6_1728)"/>
<path d="M18.5802 25.1802L13.2361 19.6874L12.0202 21.4722L17.3643 26.965L18.5802 25.1802Z" fill="url(#paint21_linear_6_1728)"/>
<path d="M14.8566 27.2152L18.5802 25.1802L17.3643 26.965L13.6407 29L14.8566 27.2152Z" fill="url(#paint22_linear_6_1728)"/>
<path d="M1.21591 13.1948L14.8566 27.2152L13.6407 29L0 14.9797L1.21591 13.1948Z" fill="url(#paint23_linear_6_1728)"/>
<path d="M14.8566 27.2152L1.21591 13.1948L4.57085 11.3613L1.91358 8.63008L5.23165 6.81672L2.54485 4.05514L6.30534 2L8.99215 4.76158L12.3102 2.94822L14.9675 5.67946L18.3593 3.82581L32 17.8462L28.2395 19.9013L22.8954 14.4085L13.2361 19.6874L18.5802 25.1802L14.8566 27.2152ZM10.2541 16.6223L19.9134 11.3434L14.8941 6.18442L11.576 7.99778L8.91872 5.26653L5.89558 6.9187L8.55286 9.64994L5.23478 11.4633L10.2541 16.6223Z" fill="white"/>
<defs>
<linearGradient id="paint0_linear_6_1728" x1="-7.41986" y1="13.6873" x2="21.3255" y2="38.3783" gradientUnits="userSpaceOnUse">
<stop stop-color="#87748B"/>
<stop offset="1" stop-color="#87748B"/>
</linearGradient>
<linearGradient id="paint1_linear_6_1728" x1="2.37372" y1="25.2769" x2="12.8862" y2="31.9793" gradientUnits="userSpaceOnUse">
<stop stop-color="white"/>
<stop offset="1" stop-color="white"/>
</linearGradient>
<linearGradient id="paint2_linear_6_1728" x1="-2.43642" y1="15.2589" x2="17.3523" y2="33.8883" gradientUnits="userSpaceOnUse">
<stop stop-color="#87748B"/>
<stop offset="1" stop-color="#87748B"/>
</linearGradient>
<linearGradient id="paint3_linear_6_1728" x1="2.43156" y1="25.2052" x2="12.8525" y2="31.8825" gradientUnits="userSpaceOnUse">
<stop stop-color="white"/>
<stop offset="1" stop-color="white"/>
</linearGradient>
<linearGradient id="paint4_linear_6_1728" x1="-4.98997" y1="14.4896" x2="19.2274" y2="36.265" gradientUnits="userSpaceOnUse">
<stop stop-color="#87748B"/>
<stop offset="1" stop-color="#87748B"/>
</linearGradient>
<linearGradient id="paint5_linear_6_1728" x1="2.11023" y1="25.6129" x2="13.0445" y2="32.4252" gradientUnits="userSpaceOnUse">
<stop stop-color="white"/>
<stop offset="1" stop-color="white"/>
</linearGradient>
<linearGradient id="paint6_linear_6_1728" x1="2.43156" y1="25.2052" x2="12.8525" y2="31.8825" gradientUnits="userSpaceOnUse">
<stop stop-color="white"/>
<stop offset="1" stop-color="white"/>
</linearGradient>
<linearGradient id="paint7_linear_6_1728" x1="-2.48741" y1="15.2442" x2="17.3865" y2="33.9371" gradientUnits="userSpaceOnUse">
<stop stop-color="#87748B"/>
<stop offset="1" stop-color="#87748B"/>
</linearGradient>
<linearGradient id="paint8_linear_6_1728" x1="-5.19728" y1="14.424" x2="19.3943" y2="36.4514" gradientUnits="userSpaceOnUse">
<stop stop-color="#87748B"/>
<stop offset="1" stop-color="#87748B"/>
</linearGradient>
<linearGradient id="paint9_linear_6_1728" x1="-2.43642" y1="15.2589" x2="17.3523" y2="33.8883" gradientUnits="userSpaceOnUse">
<stop stop-color="#87748B"/>
<stop offset="1" stop-color="#87748B"/>
</linearGradient>
<linearGradient id="paint10_linear_6_1728" x1="2.11023" y1="25.6129" x2="13.0445" y2="32.4252" gradientUnits="userSpaceOnUse">
<stop stop-color="white"/>
<stop offset="1" stop-color="white"/>
</linearGradient>
<linearGradient id="paint11_linear_6_1728" x1="2.68305" y1="24.9015" x2="12.7105" y2="31.4658" gradientUnits="userSpaceOnUse">
<stop stop-color="white"/>
<stop offset="1" stop-color="white"/>
</linearGradient>
<linearGradient id="paint12_linear_6_1728" x1="-2.48741" y1="15.2442" x2="17.3865" y2="33.9371" gradientUnits="userSpaceOnUse">
<stop stop-color="#87748B"/>
<stop offset="1" stop-color="#87748B"/>
</linearGradient>
<linearGradient id="paint13_linear_6_1728" x1="-2.43642" y1="15.2589" x2="17.3523" y2="33.8883" gradientUnits="userSpaceOnUse">
<stop stop-color="#87748B"/>
<stop offset="1" stop-color="#87748B"/>
</linearGradient>
<linearGradient id="paint14_linear_6_1728" x1="0.32399" y1="28.3822" x2="14.3162" y2="35.7201" gradientUnits="userSpaceOnUse">
<stop stop-color="white"/>
<stop offset="1" stop-color="white"/>
</linearGradient>
<linearGradient id="paint15_linear_6_1728" x1="0.323992" y1="28.3822" x2="14.3162" y2="35.7201" gradientUnits="userSpaceOnUse">
<stop stop-color="white"/>
<stop offset="1" stop-color="white"/>
</linearGradient>
<linearGradient id="paint16_linear_6_1728" x1="2.43156" y1="25.2052" x2="12.8525" y2="31.8825" gradientUnits="userSpaceOnUse">
<stop stop-color="white"/>
<stop offset="1" stop-color="white"/>
</linearGradient>
<linearGradient id="paint17_linear_6_1728" x1="2.43156" y1="25.2052" x2="12.8525" y2="31.8825" gradientUnits="userSpaceOnUse">
<stop stop-color="white"/>
<stop offset="1" stop-color="white"/>
</linearGradient>
<linearGradient id="paint18_linear_6_1728" x1="-2.43642" y1="15.2589" x2="17.3523" y2="33.8883" gradientUnits="userSpaceOnUse">
<stop stop-color="#87748B"/>
<stop offset="1" stop-color="#87748B"/>
</linearGradient>
<linearGradient id="paint19_linear_6_1728" x1="-4.98997" y1="14.4896" x2="19.2274" y2="36.265" gradientUnits="userSpaceOnUse">
<stop stop-color="#87748B"/>
<stop offset="1" stop-color="#87748B"/>
</linearGradient>
<linearGradient id="paint20_linear_6_1728" x1="2.40241" y1="25.2412" x2="12.8695" y2="31.9313" gradientUnits="userSpaceOnUse">
<stop stop-color="white"/>
<stop offset="1" stop-color="white"/>
</linearGradient>
<linearGradient id="paint21_linear_6_1728" x1="-5.19728" y1="14.424" x2="19.3943" y2="36.4514" gradientUnits="userSpaceOnUse">
<stop stop-color="#87748B"/>
<stop offset="1" stop-color="#87748B"/>
</linearGradient>
<linearGradient id="paint22_linear_6_1728" x1="2.13481" y1="25.5809" x2="13.0294" y2="32.3832" gradientUnits="userSpaceOnUse">
<stop stop-color="white"/>
<stop offset="1" stop-color="white"/>
</linearGradient>
<linearGradient id="paint23_linear_6_1728" x1="-7.41986" y1="13.6873" x2="21.3255" y2="38.3783" gradientUnits="userSpaceOnUse">
<stop stop-color="#87748B"/>
<stop offset="1" stop-color="#87748B"/>
</linearGradient>
</defs>
</svg>
